<?xml version="1.0" encoding="utf-8" standalone="no"?>
<!DOCTYPE svg PUBLIC "-//W3C//DTD SVG 1.1//EN"
  "http://www.w3.org/Graphics/SVG/1.1/DTD/svg11.dtd">
<svg xmlns:xlink="http://www.w3.org/1999/xlink" width="594.42pt" height="568.183437pt" viewBox="0 0 594.42 568.183437" xmlns="http://www.w3.org/2000/svg" version="1.1">
 <metadata>
  <rdf:RDF xmlns:dc="http://purl.org/dc/elements/1.1/" xmlns:cc="http://creativecommons.org/ns#" xmlns:rdf="http://www.w3.org/1999/02/22-rdf-syntax-ns#">
   <cc:Work>
    <dc:type rdf:resource="http://purl.org/dc/dcmitype/StillImage"/>
    <dc:date>2025-07-01T16:26:21.400482</dc:date>
    <dc:format>image/svg+xml</dc:format>
    <dc:creator>
     <cc:Agent>
      <dc:title>Matplotlib v3.10.0, https://matplotlib.org/</dc:title>
     </cc:Agent>
    </dc:creator>
   </cc:Work>
  </rdf:RDF>
 </metadata>
 <defs>
  <style type="text/css">*{stroke-linejoin: round; stroke-linecap: butt}</style>
 </defs>
 <g id="figure_1">
  <g id="patch_1">
   <path d="M 0 568.183437 
L 594.42 568.183437 
L 594.42 0 
L 0 0 
z
" style="fill: #ffffff"/>
  </g>
  <g id="axes_1">
   <g id="patch_2">
    <path d="M 43.68 530.9 
L 550.74 530.9 
L 550.74 23.84 
L 43.68 23.84 
z
" style="fill: #ffffff"/>
   </g>
   <g id="matplotlib.axis_1">
    <g id="xtick_1">
     <g id="line2d_1">
      <path d="M 43.68 530.9 
L 43.68 23.84 
" clip-path="url(#p08179aca20)" style="fill: none; stroke: #cccccc; stroke-linecap: round"/>
     </g>
     <g id="text_1">
      <!-- 0 -->
      <g style="fill: #262626" transform="translate(41.455625 546.12625) scale(0.08 -0.08)">
       <defs>
        <path id="ArialMT-30" d="M 266 2259 
Q 266 3072 433 3567 
Q 600 4063 929 4331 
Q 1259 4600 1759 4600 
Q 2128 4600 2406 4451 
Q 2684 4303 2865 4023 
Q 3047 3744 3150 3342 
Q 3253 2941 3253 2259 
Q 3253 1453 3087 958 
Q 2922 463 2592 192 
Q 2263 -78 1759 -78 
Q 1097 -78 719 397 
Q 266 969 266 2259 
z
M 844 2259 
Q 844 1131 1108 757 
Q 1372 384 1759 384 
Q 2147 384 2411 759 
Q 2675 1134 2675 2259 
Q 2675 3391 2411 3762 
Q 2147 4134 1753 4134 
Q 1366 4134 1134 3806 
Q 844 3388 844 2259 
z
" transform="scale(0.015625)"/>
       </defs>
       <use xlink:href="#ArialMT-30"/>
      </g>
     </g>
    </g>
    <g id="xtick_2">
     <g id="line2d_2">
      <path d="M 136.718532 530.9 
L 136.718532 23.84 
" clip-path="url(#p08179aca20)" style="fill: none; stroke: #cccccc; stroke-linecap: round"/>
     </g>
     <g id="text_2">
      <!-- 20 -->
      <g style="fill: #262626" transform="translate(132.269782 546.12625) scale(0.08 -0.08)">
       <defs>
        <path id="ArialMT-32" d="M 3222 541 
L 3222 0 
L 194 0 
Q 188 203 259 391 
Q 375 700 629 1000 
Q 884 1300 1366 1694 
Q 2113 2306 2375 2664 
Q 2638 3022 2638 3341 
Q 2638 3675 2398 3904 
Q 2159 4134 1775 4134 
Q 1369 4134 1125 3890 
Q 881 3647 878 3216 
L 300 3275 
Q 359 3922 746 4261 
Q 1134 4600 1788 4600 
Q 2447 4600 2831 4234 
Q 3216 3869 3216 3328 
Q 3216 3053 3103 2787 
Q 2991 2522 2730 2228 
Q 2469 1934 1863 1422 
Q 1356 997 1212 845 
Q 1069 694 975 541 
L 3222 541 
z
" transform="scale(0.015625)"/>
       </defs>
       <use xlink:href="#ArialMT-32"/>
       <use xlink:href="#ArialMT-30" transform="translate(55.615234 0)"/>
      </g>
     </g>
    </g>
    <g id="xtick_3">
     <g id="line2d_3">
      <path d="M 229.757064 530.9 
L 229.757064 23.84 
" clip-path="url(#p08179aca20)" style="fill: none; stroke: #cccccc; stroke-linecap: round"/>
     </g>
     <g id="text_3">
      <!-- 40 -->
      <g style="fill: #262626" transform="translate(225.308314 546.12625) scale(0.08 -0.08)">
       <defs>
        <path id="ArialMT-34" d="M 2069 0 
L 2069 1097 
L 81 1097 
L 81 1613 
L 2172 4581 
L 2631 4581 
L 2631 1613 
L 3250 1613 
L 3250 1097 
L 2631 1097 
L 2631 0 
L 2069 0 
z
M 2069 1613 
L 2069 3678 
L 634 1613 
L 2069 1613 
z
" transform="scale(0.015625)"/>
       </defs>
       <use xlink:href="#ArialMT-34"/>
       <use xlink:href="#ArialMT-30" transform="translate(55.615234 0)"/>
      </g>
     </g>
    </g>
    <g id="xtick_4">
     <g id="line2d_4">
      <path d="M 322.795596 530.9 
L 322.795596 23.84 
" clip-path="url(#p08179aca20)" style="fill: none; stroke: #cccccc; stroke-linecap: round"/>
     </g>
     <g id="text_4">
      <!-- 60 -->
      <g style="fill: #262626" transform="translate(318.346846 546.12625) scale(0.08 -0.08)">
       <defs>
        <path id="ArialMT-36" d="M 3184 3459 
L 2625 3416 
Q 2550 3747 2413 3897 
Q 2184 4138 1850 4138 
Q 1581 4138 1378 3988 
Q 1113 3794 959 3422 
Q 806 3050 800 2363 
Q 1003 2672 1297 2822 
Q 1591 2972 1913 2972 
Q 2475 2972 2870 2558 
Q 3266 2144 3266 1488 
Q 3266 1056 3080 686 
Q 2894 316 2569 119 
Q 2244 -78 1831 -78 
Q 1128 -78 684 439 
Q 241 956 241 2144 
Q 241 3472 731 4075 
Q 1159 4600 1884 4600 
Q 2425 4600 2770 4297 
Q 3116 3994 3184 3459 
z
M 888 1484 
Q 888 1194 1011 928 
Q 1134 663 1356 523 
Q 1578 384 1822 384 
Q 2178 384 2434 671 
Q 2691 959 2691 1453 
Q 2691 1928 2437 2201 
Q 2184 2475 1800 2475 
Q 1419 2475 1153 2201 
Q 888 1928 888 1484 
z
" transform="scale(0.015625)"/>
       </defs>
       <use xlink:href="#ArialMT-36"/>
       <use xlink:href="#ArialMT-30" transform="translate(55.615234 0)"/>
      </g>
     </g>
    </g>
    <g id="xtick_5">
     <g id="line2d_5">
      <path d="M 415.834128 530.9 
L 415.834128 23.84 
" clip-path="url(#p08179aca20)" style="fill: none; stroke: #cccccc; stroke-linecap: round"/>
     </g>
     <g id="text_5">
      <!-- 80 -->
      <g style="fill: #262626" transform="translate(411.385378 546.12625) scale(0.08 -0.08)">
       <defs>
        <path id="ArialMT-38" d="M 1131 2484 
Q 781 2613 612 2850 
Q 444 3088 444 3419 
Q 444 3919 803 4259 
Q 1163 4600 1759 4600 
Q 2359 4600 2725 4251 
Q 3091 3903 3091 3403 
Q 3091 3084 2923 2848 
Q 2756 2613 2416 2484 
Q 2838 2347 3058 2040 
Q 3278 1734 3278 1309 
Q 3278 722 2862 322 
Q 2447 -78 1769 -78 
Q 1091 -78 675 323 
Q 259 725 259 1325 
Q 259 1772 486 2073 
Q 713 2375 1131 2484 
z
M 1019 3438 
Q 1019 3113 1228 2906 
Q 1438 2700 1772 2700 
Q 2097 2700 2305 2904 
Q 2513 3109 2513 3406 
Q 2513 3716 2298 3927 
Q 2084 4138 1766 4138 
Q 1444 4138 1231 3931 
Q 1019 3725 1019 3438 
z
M 838 1322 
Q 838 1081 952 856 
Q 1066 631 1291 507 
Q 1516 384 1775 384 
Q 2178 384 2440 643 
Q 2703 903 2703 1303 
Q 2703 1709 2433 1975 
Q 2163 2241 1756 2241 
Q 1359 2241 1098 1978 
Q 838 1716 838 1322 
z
" transform="scale(0.015625)"/>
       </defs>
       <use xlink:href="#ArialMT-38"/>
       <use xlink:href="#ArialMT-30" transform="translate(55.615234 0)"/>
      </g>
     </g>
    </g>
    <g id="xtick_6">
     <g id="line2d_6">
      <path d="M 508.872661 530.9 
L 508.872661 23.84 
" clip-path="url(#p08179aca20)" style="fill: none; stroke: #cccccc; stroke-linecap: round"/>
     </g>
     <g id="text_6">
      <!-- 100 -->
      <g style="fill: #262626" transform="translate(502.199536 546.12625) scale(0.08 -0.08)">
       <defs>
        <path id="ArialMT-31" d="M 2384 0 
L 1822 0 
L 1822 3584 
Q 1619 3391 1289 3197 
Q 959 3003 697 2906 
L 697 3450 
Q 1169 3672 1522 3987 
Q 1875 4303 2022 4600 
L 2384 4600 
L 2384 0 
z
" transform="scale(0.015625)"/>
       </defs>
       <use xlink:href="#ArialMT-31"/>
       <use xlink:href="#ArialMT-30" transform="translate(55.615234 0)"/>
       <use xlink:href="#ArialMT-30" transform="translate(111.230469 0)"/>
      </g>
     </g>
    </g>
    <g id="text_7">
     <!-- General Upper Bound -->
     <g style="fill: #262626" transform="translate(248.570938 558.995937) scale(0.1 -0.1)">
      <defs>
       <path id="ArialMT-47" d="M 2638 1797 
L 2638 2334 
L 4578 2338 
L 4578 638 
Q 4131 281 3656 101 
Q 3181 -78 2681 -78 
Q 2006 -78 1454 211 
Q 903 500 622 1047 
Q 341 1594 341 2269 
Q 341 2938 620 3517 
Q 900 4097 1425 4378 
Q 1950 4659 2634 4659 
Q 3131 4659 3532 4498 
Q 3934 4338 4162 4050 
Q 4391 3763 4509 3300 
L 3963 3150 
Q 3859 3500 3706 3700 
Q 3553 3900 3268 4020 
Q 2984 4141 2638 4141 
Q 2222 4141 1919 4014 
Q 1616 3888 1430 3681 
Q 1244 3475 1141 3228 
Q 966 2803 966 2306 
Q 966 1694 1177 1281 
Q 1388 869 1791 669 
Q 2194 469 2647 469 
Q 3041 469 3416 620 
Q 3791 772 3984 944 
L 3984 1797 
L 2638 1797 
z
" transform="scale(0.015625)"/>
       <path id="ArialMT-65" d="M 2694 1069 
L 3275 997 
Q 3138 488 2766 206 
Q 2394 -75 1816 -75 
Q 1088 -75 661 373 
Q 234 822 234 1631 
Q 234 2469 665 2931 
Q 1097 3394 1784 3394 
Q 2450 3394 2872 2941 
Q 3294 2488 3294 1666 
Q 3294 1616 3291 1516 
L 816 1516 
Q 847 969 1125 678 
Q 1403 388 1819 388 
Q 2128 388 2347 550 
Q 2566 713 2694 1069 
z
M 847 1978 
L 2700 1978 
Q 2663 2397 2488 2606 
Q 2219 2931 1791 2931 
Q 1403 2931 1139 2672 
Q 875 2413 847 1978 
z
" transform="scale(0.015625)"/>
       <path id="ArialMT-6e" d="M 422 0 
L 422 3319 
L 928 3319 
L 928 2847 
Q 1294 3394 1984 3394 
Q 2284 3394 2536 3286 
Q 2788 3178 2913 3003 
Q 3038 2828 3088 2588 
Q 3119 2431 3119 2041 
L 3119 0 
L 2556 0 
L 2556 2019 
Q 2556 2363 2490 2533 
Q 2425 2703 2258 2804 
Q 2091 2906 1866 2906 
Q 1506 2906 1245 2678 
Q 984 2450 984 1813 
L 984 0 
L 422 0 
z
" transform="scale(0.015625)"/>
       <path id="ArialMT-72" d="M 416 0 
L 416 3319 
L 922 3319 
L 922 2816 
Q 1116 3169 1280 3281 
Q 1444 3394 1641 3394 
Q 1925 3394 2219 3213 
L 2025 2691 
Q 1819 2813 1613 2813 
Q 1428 2813 1281 2702 
Q 1134 2591 1072 2394 
Q 978 2094 978 1738 
L 978 0 
L 416 0 
z
" transform="scale(0.015625)"/>
       <path id="ArialMT-61" d="M 2588 409 
Q 2275 144 1986 34 
Q 1697 -75 1366 -75 
Q 819 -75 525 192 
Q 231 459 231 875 
Q 231 1119 342 1320 
Q 453 1522 633 1644 
Q 813 1766 1038 1828 
Q 1203 1872 1538 1913 
Q 2219 1994 2541 2106 
Q 2544 2222 2544 2253 
Q 2544 2597 2384 2738 
Q 2169 2928 1744 2928 
Q 1347 2928 1158 2789 
Q 969 2650 878 2297 
L 328 2372 
Q 403 2725 575 2942 
Q 747 3159 1072 3276 
Q 1397 3394 1825 3394 
Q 2250 3394 2515 3294 
Q 2781 3194 2906 3042 
Q 3031 2891 3081 2659 
Q 3109 2516 3109 2141 
L 3109 1391 
Q 3109 606 3145 398 
Q 3181 191 3288 0 
L 2700 0 
Q 2613 175 2588 409 
z
M 2541 1666 
Q 2234 1541 1622 1453 
Q 1275 1403 1131 1340 
Q 988 1278 909 1158 
Q 831 1038 831 891 
Q 831 666 1001 516 
Q 1172 366 1500 366 
Q 1825 366 2078 508 
Q 2331 650 2450 897 
Q 2541 1088 2541 1459 
L 2541 1666 
z
" transform="scale(0.015625)"/>
       <path id="ArialMT-6c" d="M 409 0 
L 409 4581 
L 972 4581 
L 972 0 
L 409 0 
z
" transform="scale(0.015625)"/>
       <path id="ArialMT-20" transform="scale(0.015625)"/>
       <path id="ArialMT-55" d="M 3500 4581 
L 4106 4581 
L 4106 1934 
Q 4106 1244 3950 837 
Q 3794 431 3386 176 
Q 2978 -78 2316 -78 
Q 1672 -78 1262 144 
Q 853 366 678 786 
Q 503 1206 503 1934 
L 503 4581 
L 1109 4581 
L 1109 1938 
Q 1109 1341 1220 1058 
Q 1331 775 1601 622 
Q 1872 469 2263 469 
Q 2931 469 3215 772 
Q 3500 1075 3500 1938 
L 3500 4581 
z
" transform="scale(0.015625)"/>
       <path id="ArialMT-70" d="M 422 -1272 
L 422 3319 
L 934 3319 
L 934 2888 
Q 1116 3141 1344 3267 
Q 1572 3394 1897 3394 
Q 2322 3394 2647 3175 
Q 2972 2956 3137 2557 
Q 3303 2159 3303 1684 
Q 3303 1175 3120 767 
Q 2938 359 2589 142 
Q 2241 -75 1856 -75 
Q 1575 -75 1351 44 
Q 1128 163 984 344 
L 984 -1272 
L 422 -1272 
z
M 931 1641 
Q 931 1000 1190 694 
Q 1450 388 1819 388 
Q 2194 388 2461 705 
Q 2728 1022 2728 1688 
Q 2728 2322 2467 2637 
Q 2206 2953 1844 2953 
Q 1484 2953 1207 2617 
Q 931 2281 931 1641 
z
" transform="scale(0.015625)"/>
       <path id="ArialMT-42" d="M 469 0 
L 469 4581 
L 2188 4581 
Q 2713 4581 3030 4442 
Q 3347 4303 3526 4014 
Q 3706 3725 3706 3409 
Q 3706 3116 3547 2856 
Q 3388 2597 3066 2438 
Q 3481 2316 3704 2022 
Q 3928 1728 3928 1328 
Q 3928 1006 3792 729 
Q 3656 453 3456 303 
Q 3256 153 2954 76 
Q 2653 0 2216 0 
L 469 0 
z
M 1075 2656 
L 2066 2656 
Q 2469 2656 2644 2709 
Q 2875 2778 2992 2937 
Q 3109 3097 3109 3338 
Q 3109 3566 3000 3739 
Q 2891 3913 2687 3977 
Q 2484 4041 1991 4041 
L 1075 4041 
L 1075 2656 
z
M 1075 541 
L 2216 541 
Q 2509 541 2628 563 
Q 2838 600 2978 687 
Q 3119 775 3209 942 
Q 3300 1109 3300 1328 
Q 3300 1584 3169 1773 
Q 3038 1963 2805 2039 
Q 2572 2116 2134 2116 
L 1075 2116 
L 1075 541 
z
" transform="scale(0.015625)"/>
       <path id="ArialMT-6f" d="M 213 1659 
Q 213 2581 725 3025 
Q 1153 3394 1769 3394 
Q 2453 3394 2887 2945 
Q 3322 2497 3322 1706 
Q 3322 1066 3130 698 
Q 2938 331 2570 128 
Q 2203 -75 1769 -75 
Q 1072 -75 642 372 
Q 213 819 213 1659 
z
M 791 1659 
Q 791 1022 1069 705 
Q 1347 388 1769 388 
Q 2188 388 2466 706 
Q 2744 1025 2744 1678 
Q 2744 2294 2464 2611 
Q 2184 2928 1769 2928 
Q 1347 2928 1069 2612 
Q 791 2297 791 1659 
z
" transform="scale(0.015625)"/>
       <path id="ArialMT-75" d="M 2597 0 
L 2597 488 
Q 2209 -75 1544 -75 
Q 1250 -75 995 37 
Q 741 150 617 320 
Q 494 491 444 738 
Q 409 903 409 1263 
L 409 3319 
L 972 3319 
L 972 1478 
Q 972 1038 1006 884 
Q 1059 663 1231 536 
Q 1403 409 1656 409 
Q 1909 409 2131 539 
Q 2353 669 2445 892 
Q 2538 1116 2538 1541 
L 2538 3319 
L 3100 3319 
L 3100 0 
L 2597 0 
z
" transform="scale(0.015625)"/>
       <path id="ArialMT-64" d="M 2575 0 
L 2575 419 
Q 2259 -75 1647 -75 
Q 1250 -75 917 144 
Q 584 363 401 755 
Q 219 1147 219 1656 
Q 219 2153 384 2558 
Q 550 2963 881 3178 
Q 1213 3394 1622 3394 
Q 1922 3394 2156 3267 
Q 2391 3141 2538 2938 
L 2538 4581 
L 3097 4581 
L 3097 0 
L 2575 0 
z
M 797 1656 
Q 797 1019 1065 703 
Q 1334 388 1700 388 
Q 2069 388 2326 689 
Q 2584 991 2584 1609 
Q 2584 2291 2321 2609 
Q 2059 2928 1675 2928 
Q 1300 2928 1048 2622 
Q 797 2316 797 1656 
z
" transform="scale(0.015625)"/>
      </defs>
      <use xlink:href="#ArialMT-47"/>
      <use xlink:href="#ArialMT-65" transform="translate(77.783203 0)"/>
      <use xlink:href="#ArialMT-6e" transform="translate(133.398438 0)"/>
      <use xlink:href="#ArialMT-65" transform="translate(189.013672 0)"/>
      <use xlink:href="#ArialMT-72" transform="translate(244.628906 0)"/>
      <use xlink:href="#ArialMT-61" transform="translate(277.929688 0)"/>
      <use xlink:href="#ArialMT-6c" transform="translate(333.544922 0)"/>
      <use xlink:href="#ArialMT-20" transform="translate(355.761719 0)"/>
      <use xlink:href="#ArialMT-55" transform="translate(383.544922 0)"/>
      <use xlink:href="#ArialMT-70" transform="translate(455.761719 0)"/>
      <use xlink:href="#ArialMT-70" transform="translate(511.376953 0)"/>
      <use xlink:href="#ArialMT-65" transform="translate(566.992188 0)"/>
      <use xlink:href="#ArialMT-72" transform="translate(622.607422 0)"/>
      <use xlink:href="#ArialMT-20" transform="translate(655.908203 0)"/>
      <use xlink:href="#ArialMT-42" transform="translate(683.691406 0)"/>
      <use xlink:href="#ArialMT-6f" transform="translate(750.390625 0)"/>
      <use xlink:href="#ArialMT-75" transform="translate(806.005859 0)"/>
      <use xlink:href="#ArialMT-6e" transform="translate(861.621094 0)"/>
      <use xlink:href="#ArialMT-64" transform="translate(917.236328 0)"/>
     </g>
    </g>
   </g>
   <g id="matplotlib.axis_2">
    <g id="ytick_1">
     <g id="line2d_7">
      <path d="M 43.68 530.9 
L 550.74 530.9 
" clip-path="url(#p08179aca20)" style="fill: none; stroke: #cccccc; stroke-linecap: round"/>
     </g>
     <g id="text_8">
      <!-- 0 -->
      <g style="fill: #262626" transform="translate(29.73125 533.763125) scale(0.08 -0.08)">
       <use xlink:href="#ArialMT-30"/>
      </g>
     </g>
    </g>
    <g id="ytick_2">
     <g id="line2d_8">
      <path d="M 43.68 437.861468 
L 550.74 437.861468 
" clip-path="url(#p08179aca20)" style="fill: none; stroke: #cccccc; stroke-linecap: round"/>
     </g>
     <g id="text_9">
      <!-- 20 -->
      <g style="fill: #262626" transform="translate(25.2825 440.724593) scale(0.08 -0.08)">
       <use xlink:href="#ArialMT-32"/>
       <use xlink:href="#ArialMT-30" transform="translate(55.615234 0)"/>
      </g>
     </g>
    </g>
    <g id="ytick_3">
     <g id="line2d_9">
      <path d="M 43.68 344.822936 
L 550.74 344.822936 
" clip-path="url(#p08179aca20)" style="fill: none; stroke: #cccccc; stroke-linecap: round"/>
     </g>
     <g id="text_10">
      <!-- 40 -->
      <g style="fill: #262626" transform="translate(25.2825 347.686061) scale(0.08 -0.08)">
       <use xlink:href="#ArialMT-34"/>
       <use xlink:href="#ArialMT-30" transform="translate(55.615234 0)"/>
      </g>
     </g>
    </g>
    <g id="ytick_4">
     <g id="line2d_10">
      <path d="M 43.68 251.784404 
L 550.74 251.784404 
" clip-path="url(#p08179aca20)" style="fill: none; stroke: #cccccc; stroke-linecap: round"/>
     </g>
     <g id="text_11">
      <!-- 60 -->
      <g style="fill: #262626" transform="translate(25.2825 254.647529) scale(0.08 -0.08)">
       <use xlink:href="#ArialMT-36"/>
       <use xlink:href="#ArialMT-30" transform="translate(55.615234 0)"/>
      </g>
     </g>
    </g>
    <g id="ytick_5">
     <g id="line2d_11">
      <path d="M 43.68 158.745872 
L 550.74 158.745872 
" clip-path="url(#p08179aca20)" style="fill: none; stroke: #cccccc; stroke-linecap: round"/>
     </g>
     <g id="text_12">
      <!-- 80 -->
      <g style="fill: #262626" transform="translate(25.2825 161.608997) scale(0.08 -0.08)">
       <use xlink:href="#ArialMT-38"/>
       <use xlink:href="#ArialMT-30" transform="translate(55.615234 0)"/>
      </g>
     </g>
    </g>
    <g id="ytick_6">
     <g id="line2d_12">
      <path d="M 43.68 65.707339 
L 550.74 65.707339 
" clip-path="url(#p08179aca20)" style="fill: none; stroke: #cccccc; stroke-linecap: round"/>
     </g>
     <g id="text_13">
      <!-- 100 -->
      <g style="fill: #262626" transform="translate(20.83375 68.570464) scale(0.08 -0.08)">
       <use xlink:href="#ArialMT-31"/>
       <use xlink:href="#ArialMT-30" transform="translate(55.615234 0)"/>
       <use xlink:href="#ArialMT-30" transform="translate(111.230469 0)"/>
      </g>
     </g>
    </g>
    <g id="text_14">
     <!-- Achieved MV Set Size -->
     <g style="fill: #262626" transform="translate(14.84625 326.836406) rotate(-90) scale(0.1 -0.1)">
      <defs>
       <path id="ArialMT-41" d="M -9 0 
L 1750 4581 
L 2403 4581 
L 4278 0 
L 3588 0 
L 3053 1388 
L 1138 1388 
L 634 0 
L -9 0 
z
M 1313 1881 
L 2866 1881 
L 2388 3150 
Q 2169 3728 2063 4100 
Q 1975 3659 1816 3225 
L 1313 1881 
z
" transform="scale(0.015625)"/>
       <path id="ArialMT-63" d="M 2588 1216 
L 3141 1144 
Q 3050 572 2676 248 
Q 2303 -75 1759 -75 
Q 1078 -75 664 370 
Q 250 816 250 1647 
Q 250 2184 428 2587 
Q 606 2991 970 3192 
Q 1334 3394 1763 3394 
Q 2303 3394 2647 3120 
Q 2991 2847 3088 2344 
L 2541 2259 
Q 2463 2594 2264 2762 
Q 2066 2931 1784 2931 
Q 1359 2931 1093 2626 
Q 828 2322 828 1663 
Q 828 994 1084 691 
Q 1341 388 1753 388 
Q 2084 388 2306 591 
Q 2528 794 2588 1216 
z
" transform="scale(0.015625)"/>
       <path id="ArialMT-68" d="M 422 0 
L 422 4581 
L 984 4581 
L 984 2938 
Q 1378 3394 1978 3394 
Q 2347 3394 2619 3248 
Q 2891 3103 3008 2847 
Q 3125 2591 3125 2103 
L 3125 0 
L 2563 0 
L 2563 2103 
Q 2563 2525 2380 2717 
Q 2197 2909 1863 2909 
Q 1613 2909 1392 2779 
Q 1172 2650 1078 2428 
Q 984 2206 984 1816 
L 984 0 
L 422 0 
z
" transform="scale(0.015625)"/>
       <path id="ArialMT-69" d="M 425 3934 
L 425 4581 
L 988 4581 
L 988 3934 
L 425 3934 
z
M 425 0 
L 425 3319 
L 988 3319 
L 988 0 
L 425 0 
z
" transform="scale(0.015625)"/>
       <path id="ArialMT-76" d="M 1344 0 
L 81 3319 
L 675 3319 
L 1388 1331 
Q 1503 1009 1600 663 
Q 1675 925 1809 1294 
L 2547 3319 
L 3125 3319 
L 1869 0 
L 1344 0 
z
" transform="scale(0.015625)"/>
       <path id="ArialMT-4d" d="M 475 0 
L 475 4581 
L 1388 4581 
L 2472 1338 
Q 2622 884 2691 659 
Q 2769 909 2934 1394 
L 4031 4581 
L 4847 4581 
L 4847 0 
L 4263 0 
L 4263 3834 
L 2931 0 
L 2384 0 
L 1059 3900 
L 1059 0 
L 475 0 
z
" transform="scale(0.015625)"/>
       <path id="ArialMT-56" d="M 1803 0 
L 28 4581 
L 684 4581 
L 1875 1253 
Q 2019 853 2116 503 
Q 2222 878 2363 1253 
L 3600 4581 
L 4219 4581 
L 2425 0 
L 1803 0 
z
" transform="scale(0.015625)"/>
       <path id="ArialMT-53" d="M 288 1472 
L 859 1522 
Q 900 1178 1048 958 
Q 1197 738 1509 602 
Q 1822 466 2213 466 
Q 2559 466 2825 569 
Q 3091 672 3220 851 
Q 3350 1031 3350 1244 
Q 3350 1459 3225 1620 
Q 3100 1781 2813 1891 
Q 2628 1963 1997 2114 
Q 1366 2266 1113 2400 
Q 784 2572 623 2826 
Q 463 3081 463 3397 
Q 463 3744 659 4045 
Q 856 4347 1234 4503 
Q 1613 4659 2075 4659 
Q 2584 4659 2973 4495 
Q 3363 4331 3572 4012 
Q 3781 3694 3797 3291 
L 3216 3247 
Q 3169 3681 2898 3903 
Q 2628 4125 2100 4125 
Q 1550 4125 1298 3923 
Q 1047 3722 1047 3438 
Q 1047 3191 1225 3031 
Q 1400 2872 2139 2705 
Q 2878 2538 3153 2413 
Q 3553 2228 3743 1945 
Q 3934 1663 3934 1294 
Q 3934 928 3725 604 
Q 3516 281 3123 101 
Q 2731 -78 2241 -78 
Q 1619 -78 1198 103 
Q 778 284 539 648 
Q 300 1013 288 1472 
z
" transform="scale(0.015625)"/>
       <path id="ArialMT-74" d="M 1650 503 
L 1731 6 
Q 1494 -44 1306 -44 
Q 1000 -44 831 53 
Q 663 150 594 308 
Q 525 466 525 972 
L 525 2881 
L 113 2881 
L 113 3319 
L 525 3319 
L 525 4141 
L 1084 4478 
L 1084 3319 
L 1650 3319 
L 1650 2881 
L 1084 2881 
L 1084 941 
Q 1084 700 1114 631 
Q 1144 563 1211 522 
Q 1278 481 1403 481 
Q 1497 481 1650 503 
z
" transform="scale(0.015625)"/>
       <path id="ArialMT-7a" d="M 125 0 
L 125 456 
L 2238 2881 
Q 1878 2863 1603 2863 
L 250 2863 
L 250 3319 
L 2963 3319 
L 2963 2947 
L 1166 841 
L 819 456 
Q 1197 484 1528 484 
L 3063 484 
L 3063 0 
L 125 0 
z
" transform="scale(0.015625)"/>
      </defs>
      <use xlink:href="#ArialMT-41"/>
      <use xlink:href="#ArialMT-63" transform="translate(66.699219 0)"/>
      <use xlink:href="#ArialMT-68" transform="translate(116.699219 0)"/>
      <use xlink:href="#ArialMT-69" transform="translate(172.314453 0)"/>
      <use xlink:href="#ArialMT-65" transform="translate(194.53125 0)"/>
      <use xlink:href="#ArialMT-76" transform="translate(250.146484 0)"/>
      <use xlink:href="#ArialMT-65" transform="translate(300.146484 0)"/>
      <use xlink:href="#ArialMT-64" transform="translate(355.761719 0)"/>
      <use xlink:href="#ArialMT-20" transform="translate(411.376953 0)"/>
      <use xlink:href="#ArialMT-4d" transform="translate(439.160156 0)"/>
      <use xlink:href="#ArialMT-56" transform="translate(522.460938 0)"/>
      <use xlink:href="#ArialMT-20" transform="translate(589.160156 0)"/>
      <use xlink:href="#ArialMT-53" transform="translate(616.943359 0)"/>
      <use xlink:href="#ArialMT-65" transform="translate(683.642578 0)"/>
      <use xlink:href="#ArialMT-74" transform="translate(739.257812 0)"/>
      <use xlink:href="#ArialMT-20" transform="translate(767.041016 0)"/>
      <use xlink:href="#ArialMT-53" transform="translate(794.824219 0)"/>
      <use xlink:href="#ArialMT-69" transform="translate(861.523438 0)"/>
      <use xlink:href="#ArialMT-7a" transform="translate(883.740234 0)"/>
      <use xlink:href="#ArialMT-65" transform="translate(933.740234 0)"/>
     </g>
    </g>
   </g>
   <g id="PathCollection_1">
    <defs>
     <path id="C0_0_014a9a0ffb" d="M 0 4.472136 
C 1.186024 4.472136 2.323632 4.000923 3.162278 3.162278 
C 4.000923 2.323632 4.472136 1.186024 4.472136 -0 
C 4.472136 -1.186024 4.000923 -2.323632 3.162278 -3.162278 
C 2.323632 -4.000923 1.186024 -4.472136 0 -4.472136 
C -1.186024 -4.472136 -2.323632 -4.000923 -3.162278 -3.162278 
C -4.000923 -2.323632 -4.472136 -1.186024 -4.472136 0 
C -4.472136 1.186024 -4.000923 2.323632 -3.162278 3.162278 
C -2.323632 4.000923 -1.186024 4.472136 0 4.472136 
z
"/>
    </defs>
    <g clip-path="url(#p08179aca20)">
     <use xlink:href="#C0_0_014a9a0ffb" x="80.895413" y="507.640367" style="fill: #1f77b4; fill-opacity: 0.7; stroke: #ffffff; stroke-opacity: 0.7; stroke-width: 0.715542"/>
    </g>
    <g clip-path="url(#p08179aca20)">
     <use xlink:href="#C0_0_014a9a0ffb" x="85.547339" y="502.98844" style="fill: #1f77b4; fill-opacity: 0.7; stroke: #ffffff; stroke-opacity: 0.7; stroke-width: 0.715542"/>
    </g>
    <g clip-path="url(#p08179aca20)">
     <use xlink:href="#C0_0_014a9a0ffb" x="76.243486" y="507.640367" style="fill: #ff7f0e; fill-opacity: 0.7; stroke: #ffffff; stroke-opacity: 0.7; stroke-width: 0.715542"/>
    </g>
    <g clip-path="url(#p08179aca20)">
     <use xlink:href="#C0_0_014a9a0ffb" x="85.547339" y="493.684587" style="fill: #ff7f0e; fill-opacity: 0.7; stroke: #ffffff; stroke-opacity: 0.7; stroke-width: 0.715542"/>
    </g>
    <g clip-path="url(#p08179aca20)">
     <use xlink:href="#C0_0_014a9a0ffb" x="80.895413" y="502.98844" style="fill: #ff7f0e; fill-opacity: 0.7; stroke: #ffffff; stroke-opacity: 0.7; stroke-width: 0.715542"/>
    </g>
    <g clip-path="url(#p08179aca20)">
     <use xlink:href="#C0_0_014a9a0ffb" x="66.939633" y="507.640367" style="fill: #ff7f0e; fill-opacity: 0.7; stroke: #ffffff; stroke-opacity: 0.7; stroke-width: 0.715542"/>
    </g>
    <g clip-path="url(#p08179aca20)">
     <use xlink:href="#C0_0_014a9a0ffb" x="85.547339" y="493.684587" style="fill: #ff7f0e; fill-opacity: 0.7; stroke: #ffffff; stroke-opacity: 0.7; stroke-width: 0.715542"/>
    </g>
    <g clip-path="url(#p08179aca20)">
     <use xlink:href="#C0_0_014a9a0ffb" x="85.547339" y="493.684587" style="fill: #ff7f0e; fill-opacity: 0.7; stroke: #ffffff; stroke-opacity: 0.7; stroke-width: 0.715542"/>
    </g>
    <g clip-path="url(#p08179aca20)">
     <use xlink:href="#C0_0_014a9a0ffb" x="85.547339" y="493.684587" style="fill: #ff7f0e; fill-opacity: 0.7; stroke: #ffffff; stroke-opacity: 0.7; stroke-width: 0.715542"/>
    </g>
    <g clip-path="url(#p08179aca20)">
     <use xlink:href="#C0_0_014a9a0ffb" x="66.939633" y="507.640367" style="fill: #ff7f0e; fill-opacity: 0.7; stroke: #ffffff; stroke-opacity: 0.7; stroke-width: 0.715542"/>
    </g>
    <g clip-path="url(#p08179aca20)">
     <use xlink:href="#C0_0_014a9a0ffb" x="80.895413" y="502.98844" style="fill: #ff7f0e; fill-opacity: 0.7; stroke: #ffffff; stroke-opacity: 0.7; stroke-width: 0.715542"/>
    </g>
    <g clip-path="url(#p08179aca20)">
     <use xlink:href="#C0_0_014a9a0ffb" x="85.547339" y="493.684587" style="fill: #ff7f0e; fill-opacity: 0.7; stroke: #ffffff; stroke-opacity: 0.7; stroke-width: 0.715542"/>
    </g>
    <g clip-path="url(#p08179aca20)">
     <use xlink:href="#C0_0_014a9a0ffb" x="80.895413" y="498.336514" style="fill: #ff7f0e; fill-opacity: 0.7; stroke: #ffffff; stroke-opacity: 0.7; stroke-width: 0.715542"/>
    </g>
    <g clip-path="url(#p08179aca20)">
     <use xlink:href="#C0_0_014a9a0ffb" x="85.547339" y="498.336514" style="fill: #ff7f0e; fill-opacity: 0.7; stroke: #ffffff; stroke-opacity: 0.7; stroke-width: 0.715542"/>
    </g>
    <g clip-path="url(#p08179aca20)">
     <use xlink:href="#C0_0_014a9a0ffb" x="80.895413" y="498.336514" style="fill: #ff7f0e; fill-opacity: 0.7; stroke: #ffffff; stroke-opacity: 0.7; stroke-width: 0.715542"/>
    </g>
    <g clip-path="url(#p08179aca20)">
     <use xlink:href="#C0_0_014a9a0ffb" x="80.895413" y="498.336514" style="fill: #ff7f0e; fill-opacity: 0.7; stroke: #ffffff; stroke-opacity: 0.7; stroke-width: 0.715542"/>
    </g>
    <g clip-path="url(#p08179aca20)">
     <use xlink:href="#C0_0_014a9a0ffb" x="71.59156" y="507.640367" style="fill: #ff7f0e; fill-opacity: 0.7; stroke: #ffffff; stroke-opacity: 0.7; stroke-width: 0.715542"/>
    </g>
    <g clip-path="url(#p08179aca20)">
     <use xlink:href="#C0_0_014a9a0ffb" x="85.547339" y="489.032661" style="fill: #ff7f0e; fill-opacity: 0.7; stroke: #ffffff; stroke-opacity: 0.7; stroke-width: 0.715542"/>
    </g>
    <g clip-path="url(#p08179aca20)">
     <use xlink:href="#C0_0_014a9a0ffb" x="85.547339" y="489.032661" style="fill: #ff7f0e; fill-opacity: 0.7; stroke: #ffffff; stroke-opacity: 0.7; stroke-width: 0.715542"/>
    </g>
    <g clip-path="url(#p08179aca20)">
     <use xlink:href="#C0_0_014a9a0ffb" x="71.59156" y="512.292294" style="fill: #ff7f0e; fill-opacity: 0.7; stroke: #ffffff; stroke-opacity: 0.7; stroke-width: 0.715542"/>
    </g>
    <g clip-path="url(#p08179aca20)">
     <use xlink:href="#C0_0_014a9a0ffb" x="80.895413" y="498.336514" style="fill: #ff7f0e; fill-opacity: 0.7; stroke: #ffffff; stroke-opacity: 0.7; stroke-width: 0.715542"/>
    </g>
    <g clip-path="url(#p08179aca20)">
     <use xlink:href="#C0_0_014a9a0ffb" x="85.547339" y="493.684587" style="fill: #ff7f0e; fill-opacity: 0.7; stroke: #ffffff; stroke-opacity: 0.7; stroke-width: 0.715542"/>
    </g>
    <g clip-path="url(#p08179aca20)">
     <use xlink:href="#C0_0_014a9a0ffb" x="76.243486" y="507.640367" style="fill: #ff7f0e; fill-opacity: 0.7; stroke: #ffffff; stroke-opacity: 0.7; stroke-width: 0.715542"/>
    </g>
    <g clip-path="url(#p08179aca20)">
     <use xlink:href="#C0_0_014a9a0ffb" x="85.547339" y="493.684587" style="fill: #ff7f0e; fill-opacity: 0.7; stroke: #ffffff; stroke-opacity: 0.7; stroke-width: 0.715542"/>
    </g>
    <g clip-path="url(#p08179aca20)">
     <use xlink:href="#C0_0_014a9a0ffb" x="76.243486" y="502.98844" style="fill: #ff7f0e; fill-opacity: 0.7; stroke: #ffffff; stroke-opacity: 0.7; stroke-width: 0.715542"/>
    </g>
    <g clip-path="url(#p08179aca20)">
     <use xlink:href="#C0_0_014a9a0ffb" x="76.243486" y="498.336514" style="fill: #ff7f0e; fill-opacity: 0.7; stroke: #ffffff; stroke-opacity: 0.7; stroke-width: 0.715542"/>
    </g>
    <g clip-path="url(#p08179aca20)">
     <use xlink:href="#C0_0_014a9a0ffb" x="85.547339" y="493.684587" style="fill: #ff7f0e; fill-opacity: 0.7; stroke: #ffffff; stroke-opacity: 0.7; stroke-width: 0.715542"/>
    </g>
    <g clip-path="url(#p08179aca20)">
     <use xlink:href="#C0_0_014a9a0ffb" x="85.547339" y="493.684587" style="fill: #ff7f0e; fill-opacity: 0.7; stroke: #ffffff; stroke-opacity: 0.7; stroke-width: 0.715542"/>
    </g>
    <g clip-path="url(#p08179aca20)">
     <use xlink:href="#C0_0_014a9a0ffb" x="76.243486" y="502.98844" style="fill: #ff7f0e; fill-opacity: 0.7; stroke: #ffffff; stroke-opacity: 0.7; stroke-width: 0.715542"/>
    </g>
    <g clip-path="url(#p08179aca20)">
     <use xlink:href="#C0_0_014a9a0ffb" x="80.895413" y="502.98844" style="fill: #ff7f0e; fill-opacity: 0.7; stroke: #ffffff; stroke-opacity: 0.7; stroke-width: 0.715542"/>
    </g>
    <g clip-path="url(#p08179aca20)">
     <use xlink:href="#C0_0_014a9a0ffb" x="85.547339" y="493.684587" style="fill: #ff7f0e; fill-opacity: 0.7; stroke: #ffffff; stroke-opacity: 0.7; stroke-width: 0.715542"/>
    </g>
    <g clip-path="url(#p08179aca20)">
     <use xlink:href="#C0_0_014a9a0ffb" x="80.895413" y="507.640367" style="fill: #ff7f0e; fill-opacity: 0.7; stroke: #ffffff; stroke-opacity: 0.7; stroke-width: 0.715542"/>
    </g>
    <g clip-path="url(#p08179aca20)">
     <use xlink:href="#C0_0_014a9a0ffb" x="85.547339" y="489.032661" style="fill: #ff7f0e; fill-opacity: 0.7; stroke: #ffffff; stroke-opacity: 0.7; stroke-width: 0.715542"/>
    </g>
    <g clip-path="url(#p08179aca20)">
     <use xlink:href="#C0_0_014a9a0ffb" x="85.547339" y="493.684587" style="fill: #ff7f0e; fill-opacity: 0.7; stroke: #ffffff; stroke-opacity: 0.7; stroke-width: 0.715542"/>
    </g>
    <g clip-path="url(#p08179aca20)">
     <use xlink:href="#C0_0_014a9a0ffb" x="80.895413" y="498.336514" style="fill: #ff7f0e; fill-opacity: 0.7; stroke: #ffffff; stroke-opacity: 0.7; stroke-width: 0.715542"/>
    </g>
    <g clip-path="url(#p08179aca20)">
     <use xlink:href="#C0_0_014a9a0ffb" x="76.243486" y="507.640367" style="fill: #ff7f0e; fill-opacity: 0.7; stroke: #ffffff; stroke-opacity: 0.7; stroke-width: 0.715542"/>
    </g>
    <g clip-path="url(#p08179aca20)">
     <use xlink:href="#C0_0_014a9a0ffb" x="80.895413" y="493.684587" style="fill: #ff7f0e; fill-opacity: 0.7; stroke: #ffffff; stroke-opacity: 0.7; stroke-width: 0.715542"/>
    </g>
    <g clip-path="url(#p08179aca20)">
     <use xlink:href="#C0_0_014a9a0ffb" x="85.547339" y="489.032661" style="fill: #ff7f0e; fill-opacity: 0.7; stroke: #ffffff; stroke-opacity: 0.7; stroke-width: 0.715542"/>
    </g>
    <g clip-path="url(#p08179aca20)">
     <use xlink:href="#C0_0_014a9a0ffb" x="85.547339" y="493.684587" style="fill: #ff7f0e; fill-opacity: 0.7; stroke: #ffffff; stroke-opacity: 0.7; stroke-width: 0.715542"/>
    </g>
    <g clip-path="url(#p08179aca20)">
     <use xlink:href="#C0_0_014a9a0ffb" x="71.59156" y="507.640367" style="fill: #ff7f0e; fill-opacity: 0.7; stroke: #ffffff; stroke-opacity: 0.7; stroke-width: 0.715542"/>
    </g>
    <g clip-path="url(#p08179aca20)">
     <use xlink:href="#C0_0_014a9a0ffb" x="80.895413" y="502.98844" style="fill: #ff7f0e; fill-opacity: 0.7; stroke: #ffffff; stroke-opacity: 0.7; stroke-width: 0.715542"/>
    </g>
    <g clip-path="url(#p08179aca20)">
     <use xlink:href="#C0_0_014a9a0ffb" x="80.895413" y="498.336514" style="fill: #ff7f0e; fill-opacity: 0.7; stroke: #ffffff; stroke-opacity: 0.7; stroke-width: 0.715542"/>
    </g>
    <g clip-path="url(#p08179aca20)">
     <use xlink:href="#C0_0_014a9a0ffb" x="85.547339" y="489.032661" style="fill: #ff7f0e; fill-opacity: 0.7; stroke: #ffffff; stroke-opacity: 0.7; stroke-width: 0.715542"/>
    </g>
    <g clip-path="url(#p08179aca20)">
     <use xlink:href="#C0_0_014a9a0ffb" x="76.243486" y="502.98844" style="fill: #ff7f0e; fill-opacity: 0.7; stroke: #ffffff; stroke-opacity: 0.7; stroke-width: 0.715542"/>
    </g>
    <g clip-path="url(#p08179aca20)">
     <use xlink:href="#C0_0_014a9a0ffb" x="66.939633" y="507.640367" style="fill: #ff7f0e; fill-opacity: 0.7; stroke: #ffffff; stroke-opacity: 0.7; stroke-width: 0.715542"/>
    </g>
    <g clip-path="url(#p08179aca20)">
     <use xlink:href="#C0_0_014a9a0ffb" x="66.939633" y="512.292294" style="fill: #ff7f0e; fill-opacity: 0.7; stroke: #ffffff; stroke-opacity: 0.7; stroke-width: 0.715542"/>
    </g>
    <g clip-path="url(#p08179aca20)">
     <use xlink:href="#C0_0_014a9a0ffb" x="66.939633" y="507.640367" style="fill: #ff7f0e; fill-opacity: 0.7; stroke: #ffffff; stroke-opacity: 0.7; stroke-width: 0.715542"/>
    </g>
    <g clip-path="url(#p08179aca20)">
     <use xlink:href="#C0_0_014a9a0ffb" x="66.939633" y="507.640367" style="fill: #ff7f0e; fill-opacity: 0.7; stroke: #ffffff; stroke-opacity: 0.7; stroke-width: 0.715542"/>
    </g>
    <g clip-path="url(#p08179aca20)">
     <use xlink:href="#C0_0_014a9a0ffb" x="85.547339" y="489.032661" style="fill: #ff7f0e; fill-opacity: 0.7; stroke: #ffffff; stroke-opacity: 0.7; stroke-width: 0.715542"/>
    </g>
    <g clip-path="url(#p08179aca20)">
     <use xlink:href="#C0_0_014a9a0ffb" x="76.243486" y="502.98844" style="fill: #ff7f0e; fill-opacity: 0.7; stroke: #ffffff; stroke-opacity: 0.7; stroke-width: 0.715542"/>
    </g>
    <g clip-path="url(#p08179aca20)">
     <use xlink:href="#C0_0_014a9a0ffb" x="80.895413" y="498.336514" style="fill: #ff7f0e; fill-opacity: 0.7; stroke: #ffffff; stroke-opacity: 0.7; stroke-width: 0.715542"/>
    </g>
    <g clip-path="url(#p08179aca20)">
     <use xlink:href="#C0_0_014a9a0ffb" x="85.547339" y="489.032661" style="fill: #ff7f0e; fill-opacity: 0.7; stroke: #ffffff; stroke-opacity: 0.7; stroke-width: 0.715542"/>
    </g>
    <g clip-path="url(#p08179aca20)">
     <use xlink:href="#C0_0_014a9a0ffb" x="85.547339" y="489.032661" style="fill: #ff7f0e; fill-opacity: 0.7; stroke: #ffffff; stroke-opacity: 0.7; stroke-width: 0.715542"/>
    </g>
    <g clip-path="url(#p08179aca20)">
     <use xlink:href="#C0_0_014a9a0ffb" x="85.547339" y="493.684587" style="fill: #ff7f0e; fill-opacity: 0.7; stroke: #ffffff; stroke-opacity: 0.7; stroke-width: 0.715542"/>
    </g>
    <g clip-path="url(#p08179aca20)">
     <use xlink:href="#C0_0_014a9a0ffb" x="80.895413" y="493.684587" style="fill: #ff7f0e; fill-opacity: 0.7; stroke: #ffffff; stroke-opacity: 0.7; stroke-width: 0.715542"/>
    </g>
    <g clip-path="url(#p08179aca20)">
     <use xlink:href="#C0_0_014a9a0ffb" x="85.547339" y="489.032661" style="fill: #ff7f0e; fill-opacity: 0.7; stroke: #ffffff; stroke-opacity: 0.7; stroke-width: 0.715542"/>
    </g>
    <g clip-path="url(#p08179aca20)">
     <use xlink:href="#C0_0_014a9a0ffb" x="85.547339" y="489.032661" style="fill: #ff7f0e; fill-opacity: 0.7; stroke: #ffffff; stroke-opacity: 0.7; stroke-width: 0.715542"/>
    </g>
    <g clip-path="url(#p08179aca20)">
     <use xlink:href="#C0_0_014a9a0ffb" x="76.243486" y="502.98844" style="fill: #ff7f0e; fill-opacity: 0.7; stroke: #ffffff; stroke-opacity: 0.7; stroke-width: 0.715542"/>
    </g>
    <g clip-path="url(#p08179aca20)">
     <use xlink:href="#C0_0_014a9a0ffb" x="76.243486" y="502.98844" style="fill: #ff7f0e; fill-opacity: 0.7; stroke: #ffffff; stroke-opacity: 0.7; stroke-width: 0.715542"/>
    </g>
    <g clip-path="url(#p08179aca20)">
     <use xlink:href="#C0_0_014a9a0ffb" x="85.547339" y="489.032661" style="fill: #ff7f0e; fill-opacity: 0.7; stroke: #ffffff; stroke-opacity: 0.7; stroke-width: 0.715542"/>
    </g>
    <g clip-path="url(#p08179aca20)">
     <use xlink:href="#C0_0_014a9a0ffb" x="85.547339" y="489.032661" style="fill: #ff7f0e; fill-opacity: 0.7; stroke: #ffffff; stroke-opacity: 0.7; stroke-width: 0.715542"/>
    </g>
    <g clip-path="url(#p08179aca20)">
     <use xlink:href="#C0_0_014a9a0ffb" x="85.547339" y="489.032661" style="fill: #ff7f0e; fill-opacity: 0.7; stroke: #ffffff; stroke-opacity: 0.7; stroke-width: 0.715542"/>
    </g>
    <g clip-path="url(#p08179aca20)">
     <use xlink:href="#C0_0_014a9a0ffb" x="360.011009" y="363.430642" style="fill: #1f77b4; fill-opacity: 0.7; stroke: #ffffff; stroke-opacity: 0.7; stroke-width: 0.715542"/>
    </g>
    <g clip-path="url(#p08179aca20)">
     <use xlink:href="#C0_0_014a9a0ffb" x="434.441835" y="377.386422" style="fill: #1f77b4; fill-opacity: 0.7; stroke: #ffffff; stroke-opacity: 0.7; stroke-width: 0.715542"/>
    </g>
    <g clip-path="url(#p08179aca20)">
     <use xlink:href="#C0_0_014a9a0ffb" x="434.441835" y="382.038349" style="fill: #1f77b4; fill-opacity: 0.7; stroke: #ffffff; stroke-opacity: 0.7; stroke-width: 0.715542"/>
    </g>
    <g clip-path="url(#p08179aca20)">
     <use xlink:href="#C0_0_014a9a0ffb" x="429.789908" y="368.082569" style="fill: #1f77b4; fill-opacity: 0.7; stroke: #ffffff; stroke-opacity: 0.7; stroke-width: 0.715542"/>
    </g>
    <g clip-path="url(#p08179aca20)">
     <use xlink:href="#C0_0_014a9a0ffb" x="425.137982" y="368.082569" style="fill: #1f77b4; fill-opacity: 0.7; stroke: #ffffff; stroke-opacity: 0.7; stroke-width: 0.715542"/>
    </g>
    <g clip-path="url(#p08179aca20)">
     <use xlink:href="#C0_0_014a9a0ffb" x="425.137982" y="377.386422" style="fill: #1f77b4; fill-opacity: 0.7; stroke: #ffffff; stroke-opacity: 0.7; stroke-width: 0.715542"/>
    </g>
    <g clip-path="url(#p08179aca20)">
     <use xlink:href="#C0_0_014a9a0ffb" x="434.441835" y="372.734495" style="fill: #1f77b4; fill-opacity: 0.7; stroke: #ffffff; stroke-opacity: 0.7; stroke-width: 0.715542"/>
    </g>
    <g clip-path="url(#p08179aca20)">
     <use xlink:href="#C0_0_014a9a0ffb" x="429.789908" y="368.082569" style="fill: #1f77b4; fill-opacity: 0.7; stroke: #ffffff; stroke-opacity: 0.7; stroke-width: 0.715542"/>
    </g>
    <g clip-path="url(#p08179aca20)">
     <use xlink:href="#C0_0_014a9a0ffb" x="420.486055" y="354.126789" style="fill: #1f77b4; fill-opacity: 0.7; stroke: #ffffff; stroke-opacity: 0.7; stroke-width: 0.715542"/>
    </g>
    <g clip-path="url(#p08179aca20)">
     <use xlink:href="#C0_0_014a9a0ffb" x="434.441835" y="358.778716" style="fill: #1f77b4; fill-opacity: 0.7; stroke: #ffffff; stroke-opacity: 0.7; stroke-width: 0.715542"/>
    </g>
    <g clip-path="url(#p08179aca20)">
     <use xlink:href="#C0_0_014a9a0ffb" x="425.137982" y="358.778716" style="fill: #1f77b4; fill-opacity: 0.7; stroke: #ffffff; stroke-opacity: 0.7; stroke-width: 0.715542"/>
    </g>
    <g clip-path="url(#p08179aca20)">
     <use xlink:href="#C0_0_014a9a0ffb" x="425.137982" y="372.734495" style="fill: #1f77b4; fill-opacity: 0.7; stroke: #ffffff; stroke-opacity: 0.7; stroke-width: 0.715542"/>
    </g>
    <g clip-path="url(#p08179aca20)">
     <use xlink:href="#C0_0_014a9a0ffb" x="434.441835" y="395.994128" style="fill: #1f77b4; fill-opacity: 0.7; stroke: #ffffff; stroke-opacity: 0.7; stroke-width: 0.715542"/>
    </g>
    <g clip-path="url(#p08179aca20)">
     <use xlink:href="#C0_0_014a9a0ffb" x="406.530275" y="386.690275" style="fill: #1f77b4; fill-opacity: 0.7; stroke: #ffffff; stroke-opacity: 0.7; stroke-width: 0.715542"/>
    </g>
    <g clip-path="url(#p08179aca20)">
     <use xlink:href="#C0_0_014a9a0ffb" x="429.789908" y="363.430642" style="fill: #1f77b4; fill-opacity: 0.7; stroke: #ffffff; stroke-opacity: 0.7; stroke-width: 0.715542"/>
    </g>
    <g clip-path="url(#p08179aca20)">
     <use xlink:href="#C0_0_014a9a0ffb" x="429.789908" y="372.734495" style="fill: #1f77b4; fill-opacity: 0.7; stroke: #ffffff; stroke-opacity: 0.7; stroke-width: 0.715542"/>
    </g>
    <g clip-path="url(#p08179aca20)">
     <use xlink:href="#C0_0_014a9a0ffb" x="429.789908" y="372.734495" style="fill: #1f77b4; fill-opacity: 0.7; stroke: #ffffff; stroke-opacity: 0.7; stroke-width: 0.715542"/>
    </g>
    <g clip-path="url(#p08179aca20)">
     <use xlink:href="#C0_0_014a9a0ffb" x="434.441835" y="363.430642" style="fill: #1f77b4; fill-opacity: 0.7; stroke: #ffffff; stroke-opacity: 0.7; stroke-width: 0.715542"/>
    </g>
    <g clip-path="url(#p08179aca20)">
     <use xlink:href="#C0_0_014a9a0ffb" x="434.441835" y="363.430642" style="fill: #1f77b4; fill-opacity: 0.7; stroke: #ffffff; stroke-opacity: 0.7; stroke-width: 0.715542"/>
    </g>
    <g clip-path="url(#p08179aca20)">
     <use xlink:href="#C0_0_014a9a0ffb" x="420.486055" y="377.386422" style="fill: #1f77b4; fill-opacity: 0.7; stroke: #ffffff; stroke-opacity: 0.7; stroke-width: 0.715542"/>
    </g>
    <g clip-path="url(#p08179aca20)">
     <use xlink:href="#C0_0_014a9a0ffb" x="499.568807" y="349.474862" style="fill: #ff7f0e; fill-opacity: 0.7; stroke: #ffffff; stroke-opacity: 0.7; stroke-width: 0.715542"/>
    </g>
    <g clip-path="url(#p08179aca20)">
     <use xlink:href="#C0_0_014a9a0ffb" x="499.568807" y="344.822936" style="fill: #ff7f0e; fill-opacity: 0.7; stroke: #ffffff; stroke-opacity: 0.7; stroke-width: 0.715542"/>
    </g>
    <g clip-path="url(#p08179aca20)">
     <use xlink:href="#C0_0_014a9a0ffb" x="504.220734" y="191.309358" style="fill: #ff7f0e; fill-opacity: 0.7; stroke: #ffffff; stroke-opacity: 0.7; stroke-width: 0.715542"/>
    </g>
    <g clip-path="url(#p08179aca20)">
     <use xlink:href="#C0_0_014a9a0ffb" x="499.568807" y="335.519083" style="fill: #ff7f0e; fill-opacity: 0.7; stroke: #ffffff; stroke-opacity: 0.7; stroke-width: 0.715542"/>
    </g>
    <g clip-path="url(#p08179aca20)">
     <use xlink:href="#C0_0_014a9a0ffb" x="499.568807" y="335.519083" style="fill: #ff7f0e; fill-opacity: 0.7; stroke: #ffffff; stroke-opacity: 0.7; stroke-width: 0.715542"/>
    </g>
    <g clip-path="url(#p08179aca20)">
     <use xlink:href="#C0_0_014a9a0ffb" x="504.220734" y="191.309358" style="fill: #ff7f0e; fill-opacity: 0.7; stroke: #ffffff; stroke-opacity: 0.7; stroke-width: 0.715542"/>
    </g>
    <g clip-path="url(#p08179aca20)">
     <use xlink:href="#C0_0_014a9a0ffb" x="499.568807" y="354.126789" style="fill: #ff7f0e; fill-opacity: 0.7; stroke: #ffffff; stroke-opacity: 0.7; stroke-width: 0.715542"/>
    </g>
    <g clip-path="url(#p08179aca20)">
     <use xlink:href="#C0_0_014a9a0ffb" x="504.220734" y="186.657431" style="fill: #ff7f0e; fill-opacity: 0.7; stroke: #ffffff; stroke-opacity: 0.7; stroke-width: 0.715542"/>
    </g>
    <g clip-path="url(#p08179aca20)">
     <use xlink:href="#C0_0_014a9a0ffb" x="504.220734" y="205.265138" style="fill: #ff7f0e; fill-opacity: 0.7; stroke: #ffffff; stroke-opacity: 0.7; stroke-width: 0.715542"/>
    </g>
    <g clip-path="url(#p08179aca20)">
     <use xlink:href="#C0_0_014a9a0ffb" x="504.220734" y="191.309358" style="fill: #ff7f0e; fill-opacity: 0.7; stroke: #ffffff; stroke-opacity: 0.7; stroke-width: 0.715542"/>
    </g>
    <g clip-path="url(#p08179aca20)">
     <use xlink:href="#C0_0_014a9a0ffb" x="494.916881" y="358.778716" style="fill: #ff7f0e; fill-opacity: 0.7; stroke: #ffffff; stroke-opacity: 0.7; stroke-width: 0.715542"/>
    </g>
    <g clip-path="url(#p08179aca20)">
     <use xlink:href="#C0_0_014a9a0ffb" x="490.264954" y="358.778716" style="fill: #ff7f0e; fill-opacity: 0.7; stroke: #ffffff; stroke-opacity: 0.7; stroke-width: 0.715542"/>
    </g>
    <g clip-path="url(#p08179aca20)">
     <use xlink:href="#C0_0_014a9a0ffb" x="480.961101" y="340.171009" style="fill: #ff7f0e; fill-opacity: 0.7; stroke: #ffffff; stroke-opacity: 0.7; stroke-width: 0.715542"/>
    </g>
    <g clip-path="url(#p08179aca20)">
     <use xlink:href="#C0_0_014a9a0ffb" x="494.916881" y="354.126789" style="fill: #ff7f0e; fill-opacity: 0.7; stroke: #ffffff; stroke-opacity: 0.7; stroke-width: 0.715542"/>
    </g>
    <g clip-path="url(#p08179aca20)">
     <use xlink:href="#C0_0_014a9a0ffb" x="494.916881" y="344.822936" style="fill: #ff7f0e; fill-opacity: 0.7; stroke: #ffffff; stroke-opacity: 0.7; stroke-width: 0.715542"/>
    </g>
    <g clip-path="url(#p08179aca20)">
     <use xlink:href="#C0_0_014a9a0ffb" x="485.613028" y="377.386422" style="fill: #ff7f0e; fill-opacity: 0.7; stroke: #ffffff; stroke-opacity: 0.7; stroke-width: 0.715542"/>
    </g>
    <g clip-path="url(#p08179aca20)">
     <use xlink:href="#C0_0_014a9a0ffb" x="485.613028" y="349.474862" style="fill: #ff7f0e; fill-opacity: 0.7; stroke: #ffffff; stroke-opacity: 0.7; stroke-width: 0.715542"/>
    </g>
    <g clip-path="url(#p08179aca20)">
     <use xlink:href="#C0_0_014a9a0ffb" x="494.916881" y="344.822936" style="fill: #ff7f0e; fill-opacity: 0.7; stroke: #ffffff; stroke-opacity: 0.7; stroke-width: 0.715542"/>
    </g>
    <g clip-path="url(#p08179aca20)">
     <use xlink:href="#C0_0_014a9a0ffb" x="494.916881" y="335.519083" style="fill: #ff7f0e; fill-opacity: 0.7; stroke: #ffffff; stroke-opacity: 0.7; stroke-width: 0.715542"/>
    </g>
    <g clip-path="url(#p08179aca20)">
     <use xlink:href="#C0_0_014a9a0ffb" x="490.264954" y="358.778716" style="fill: #ff7f0e; fill-opacity: 0.7; stroke: #ffffff; stroke-opacity: 0.7; stroke-width: 0.715542"/>
    </g>
   </g>
   <g id="line2d_13">
    <path d="M 43.68 530.9 
L 550.74 23.84 
" clip-path="url(#p08179aca20)" style="fill: none; stroke-dasharray: 5.55,2.4; stroke-dashoffset: 0; stroke: #c44e52; stroke-width: 1.5"/>
   </g>
   <g id="line2d_14"/>
   <g id="line2d_15"/>
   <g id="patch_3">
    <path d="M 43.68 530.9 
L 43.68 23.84 
" style="fill: none; stroke: #cccccc; stroke-width: 1.25; stroke-linejoin: miter; stroke-linecap: square"/>
   </g>
   <g id="patch_4">
    <path d="M 550.74 530.9 
L 550.74 23.84 
" style="fill: none; stroke: #cccccc; stroke-width: 1.25; stroke-linejoin: miter; stroke-linecap: square"/>
   </g>
   <g id="patch_5">
    <path d="M 43.68 530.9 
L 550.74 530.9 
" style="fill: none; stroke: #cccccc; stroke-width: 1.25; stroke-linejoin: miter; stroke-linecap: square"/>
   </g>
   <g id="patch_6">
    <path d="M 43.68 23.84 
L 550.74 23.84 
" style="fill: none; stroke: #cccccc; stroke-width: 1.25; stroke-linejoin: miter; stroke-linecap: square"/>
   </g>
   <g id="text_15">
    <!-- Genetic Algorithm: Achieved MV Size vs. General Upper Bound ($\min\{n-d+1, n-c+3\}$) -->
    <g style="fill: #262626" transform="translate(7.2 17.84) scale(0.14 -0.14)">
     <defs>
      <path id="ArialMT-67" d="M 319 -275 
L 866 -356 
Q 900 -609 1056 -725 
Q 1266 -881 1628 -881 
Q 2019 -881 2231 -725 
Q 2444 -569 2519 -288 
Q 2563 -116 2559 434 
Q 2191 0 1641 0 
Q 956 0 581 494 
Q 206 988 206 1678 
Q 206 2153 378 2554 
Q 550 2956 876 3175 
Q 1203 3394 1644 3394 
Q 2231 3394 2613 2919 
L 2613 3319 
L 3131 3319 
L 3131 450 
Q 3131 -325 2973 -648 
Q 2816 -972 2473 -1159 
Q 2131 -1347 1631 -1347 
Q 1038 -1347 672 -1080 
Q 306 -813 319 -275 
z
M 784 1719 
Q 784 1066 1043 766 
Q 1303 466 1694 466 
Q 2081 466 2343 764 
Q 2606 1063 2606 1700 
Q 2606 2309 2336 2618 
Q 2066 2928 1684 2928 
Q 1309 2928 1046 2623 
Q 784 2319 784 1719 
z
" transform="scale(0.015625)"/>
      <path id="ArialMT-6d" d="M 422 0 
L 422 3319 
L 925 3319 
L 925 2853 
Q 1081 3097 1340 3245 
Q 1600 3394 1931 3394 
Q 2300 3394 2536 3241 
Q 2772 3088 2869 2813 
Q 3263 3394 3894 3394 
Q 4388 3394 4653 3120 
Q 4919 2847 4919 2278 
L 4919 0 
L 4359 0 
L 4359 2091 
Q 4359 2428 4304 2576 
Q 4250 2725 4106 2815 
Q 3963 2906 3769 2906 
Q 3419 2906 3187 2673 
Q 2956 2441 2956 1928 
L 2956 0 
L 2394 0 
L 2394 2156 
Q 2394 2531 2256 2718 
Q 2119 2906 1806 2906 
Q 1569 2906 1367 2781 
Q 1166 2656 1075 2415 
Q 984 2175 984 1722 
L 984 0 
L 422 0 
z
" transform="scale(0.015625)"/>
      <path id="ArialMT-3a" d="M 578 2678 
L 578 3319 
L 1219 3319 
L 1219 2678 
L 578 2678 
z
M 578 0 
L 578 641 
L 1219 641 
L 1219 0 
L 578 0 
z
" transform="scale(0.015625)"/>
      <path id="ArialMT-73" d="M 197 991 
L 753 1078 
Q 800 744 1014 566 
Q 1228 388 1613 388 
Q 2000 388 2187 545 
Q 2375 703 2375 916 
Q 2375 1106 2209 1216 
Q 2094 1291 1634 1406 
Q 1016 1563 777 1677 
Q 538 1791 414 1992 
Q 291 2194 291 2438 
Q 291 2659 392 2848 
Q 494 3038 669 3163 
Q 800 3259 1026 3326 
Q 1253 3394 1513 3394 
Q 1903 3394 2198 3281 
Q 2494 3169 2634 2976 
Q 2775 2784 2828 2463 
L 2278 2388 
Q 2241 2644 2061 2787 
Q 1881 2931 1553 2931 
Q 1166 2931 1000 2803 
Q 834 2675 834 2503 
Q 834 2394 903 2306 
Q 972 2216 1119 2156 
Q 1203 2125 1616 2013 
Q 2213 1853 2448 1751 
Q 2684 1650 2818 1456 
Q 2953 1263 2953 975 
Q 2953 694 2789 445 
Q 2625 197 2315 61 
Q 2006 -75 1616 -75 
Q 969 -75 630 194 
Q 291 463 197 991 
z
" transform="scale(0.015625)"/>
      <path id="ArialMT-2e" d="M 581 0 
L 581 641 
L 1222 641 
L 1222 0 
L 581 0 
z
" transform="scale(0.015625)"/>
      <path id="ArialMT-28" d="M 1497 -1347 
Q 1031 -759 709 28 
Q 388 816 388 1659 
Q 388 2403 628 3084 
Q 909 3875 1497 4659 
L 1900 4659 
Q 1522 4009 1400 3731 
Q 1209 3300 1100 2831 
Q 966 2247 966 1656 
Q 966 153 1900 -1347 
L 1497 -1347 
z
" transform="scale(0.015625)"/>
      <path id="DejaVuSans-6d" d="M 3328 2828 
Q 3544 3216 3844 3400 
Q 4144 3584 4550 3584 
Q 5097 3584 5394 3201 
Q 5691 2819 5691 2113 
L 5691 0 
L 5113 0 
L 5113 2094 
Q 5113 2597 4934 2840 
Q 4756 3084 4391 3084 
Q 3944 3084 3684 2787 
Q 3425 2491 3425 1978 
L 3425 0 
L 2847 0 
L 2847 2094 
Q 2847 2600 2669 2842 
Q 2491 3084 2119 3084 
Q 1678 3084 1418 2786 
Q 1159 2488 1159 1978 
L 1159 0 
L 581 0 
L 581 3500 
L 1159 3500 
L 1159 2956 
Q 1356 3278 1631 3431 
Q 1906 3584 2284 3584 
Q 2666 3584 2933 3390 
Q 3200 3197 3328 2828 
z
" transform="scale(0.015625)"/>
      <path id="DejaVuSans-69" d="M 603 3500 
L 1178 3500 
L 1178 0 
L 603 0 
L 603 3500 
z
M 603 4863 
L 1178 4863 
L 1178 4134 
L 603 4134 
L 603 4863 
z
" transform="scale(0.015625)"/>
      <path id="DejaVuSans-6e" d="M 3513 2113 
L 3513 0 
L 2938 0 
L 2938 2094 
Q 2938 2591 2744 2837 
Q 2550 3084 2163 3084 
Q 1697 3084 1428 2787 
Q 1159 2491 1159 1978 
L 1159 0 
L 581 0 
L 581 3500 
L 1159 3500 
L 1159 2956 
Q 1366 3272 1645 3428 
Q 1925 3584 2291 3584 
Q 2894 3584 3203 3211 
Q 3513 2838 3513 2113 
z
" transform="scale(0.015625)"/>
      <path id="DejaVuSans-7b" d="M 3272 -594 
L 3272 -1044 
L 3078 -1044 
Q 2300 -1044 2036 -812 
Q 1772 -581 1772 109 
L 1772 856 
Q 1772 1328 1603 1509 
Q 1434 1691 991 1691 
L 800 1691 
L 800 2138 
L 991 2138 
Q 1438 2138 1605 2317 
Q 1772 2497 1772 2963 
L 1772 3713 
Q 1772 4403 2036 4633 
Q 2300 4863 3078 4863 
L 3272 4863 
L 3272 4416 
L 3059 4416 
Q 2619 4416 2484 4278 
Q 2350 4141 2350 3700 
L 2350 2925 
Q 2350 2434 2208 2212 
Q 2066 1991 1722 1913 
Q 2069 1828 2209 1606 
Q 2350 1384 2350 897 
L 2350 122 
Q 2350 -319 2484 -456 
Q 2619 -594 3059 -594 
L 3272 -594 
z
" transform="scale(0.015625)"/>
      <path id="DejaVuSans-Oblique-6e" d="M 3566 2113 
L 3156 0 
L 2578 0 
L 2988 2091 
Q 3016 2238 3031 2350 
Q 3047 2463 3047 2528 
Q 3047 2791 2881 2937 
Q 2716 3084 2419 3084 
Q 1956 3084 1622 2776 
Q 1288 2469 1184 1941 
L 800 0 
L 225 0 
L 903 3500 
L 1478 3500 
L 1363 2950 
Q 1603 3253 1940 3418 
Q 2278 3584 2650 3584 
Q 3113 3584 3367 3334 
Q 3622 3084 3622 2631 
Q 3622 2519 3608 2391 
Q 3594 2263 3566 2113 
z
" transform="scale(0.015625)"/>
      <path id="DejaVuSans-2212" d="M 678 2272 
L 4684 2272 
L 4684 1741 
L 678 1741 
L 678 2272 
z
" transform="scale(0.015625)"/>
      <path id="DejaVuSans-Oblique-64" d="M 2675 525 
Q 2444 222 2128 65 
Q 1813 -91 1428 -91 
Q 903 -91 598 267 
Q 294 625 294 1247 
Q 294 1766 478 2236 
Q 663 2706 1013 3078 
Q 1244 3325 1534 3454 
Q 1825 3584 2144 3584 
Q 2481 3584 2739 3421 
Q 2997 3259 3138 2956 
L 3513 4863 
L 4091 4863 
L 3144 0 
L 2566 0 
L 2675 525 
z
M 891 1350 
Q 891 897 1095 644 
Q 1300 391 1663 391 
Q 1931 391 2161 520 
Q 2391 650 2566 903 
Q 2750 1166 2856 1509 
Q 2963 1853 2963 2188 
Q 2963 2622 2758 2865 
Q 2553 3109 2194 3109 
Q 1922 3109 1687 2981 
Q 1453 2853 1288 2613 
Q 1106 2353 998 2009 
Q 891 1666 891 1350 
z
" transform="scale(0.015625)"/>
      <path id="DejaVuSans-2b" d="M 2944 4013 
L 2944 2272 
L 4684 2272 
L 4684 1741 
L 2944 1741 
L 2944 0 
L 2419 0 
L 2419 1741 
L 678 1741 
L 678 2272 
L 2419 2272 
L 2419 4013 
L 2944 4013 
z
" transform="scale(0.015625)"/>
      <path id="DejaVuSans-31" d="M 794 531 
L 1825 531 
L 1825 4091 
L 703 3866 
L 703 4441 
L 1819 4666 
L 2450 4666 
L 2450 531 
L 3481 531 
L 3481 0 
L 794 0 
L 794 531 
z
" transform="scale(0.015625)"/>
      <path id="DejaVuSans-2c" d="M 750 794 
L 1409 794 
L 1409 256 
L 897 -744 
L 494 -744 
L 750 256 
L 750 794 
z
" transform="scale(0.015625)"/>
      <path id="DejaVuSans-Oblique-63" d="M 3431 3366 
L 3316 2797 
Q 3109 2947 2876 3022 
Q 2644 3097 2394 3097 
Q 2119 3097 1870 3000 
Q 1622 2903 1453 2725 
Q 1184 2453 1037 2087 
Q 891 1722 891 1331 
Q 891 859 1127 628 
Q 1363 397 1844 397 
Q 2081 397 2348 469 
Q 2616 541 2906 684 
L 2797 116 
Q 2547 13 2283 -39 
Q 2019 -91 1741 -91 
Q 1044 -91 669 257 
Q 294 606 294 1253 
Q 294 1797 489 2255 
Q 684 2713 1069 3078 
Q 1331 3328 1684 3456 
Q 2038 3584 2456 3584 
Q 2700 3584 2940 3529 
Q 3181 3475 3431 3366 
z
" transform="scale(0.015625)"/>
      <path id="DejaVuSans-33" d="M 2597 2516 
Q 3050 2419 3304 2112 
Q 3559 1806 3559 1356 
Q 3559 666 3084 287 
Q 2609 -91 1734 -91 
Q 1441 -91 1130 -33 
Q 819 25 488 141 
L 488 750 
Q 750 597 1062 519 
Q 1375 441 1716 441 
Q 2309 441 2620 675 
Q 2931 909 2931 1356 
Q 2931 1769 2642 2001 
Q 2353 2234 1838 2234 
L 1294 2234 
L 1294 2753 
L 1863 2753 
Q 2328 2753 2575 2939 
Q 2822 3125 2822 3475 
Q 2822 3834 2567 4026 
Q 2313 4219 1838 4219 
Q 1578 4219 1281 4162 
Q 984 4106 628 3988 
L 628 4550 
Q 988 4650 1302 4700 
Q 1616 4750 1894 4750 
Q 2613 4750 3031 4423 
Q 3450 4097 3450 3541 
Q 3450 3153 3228 2886 
Q 3006 2619 2597 2516 
z
" transform="scale(0.015625)"/>
      <path id="DejaVuSans-7d" d="M 800 -594 
L 1019 -594 
Q 1456 -594 1589 -459 
Q 1722 -325 1722 122 
L 1722 897 
Q 1722 1384 1862 1606 
Q 2003 1828 2350 1913 
Q 2003 1991 1862 2212 
Q 1722 2434 1722 2925 
L 1722 3700 
Q 1722 4144 1589 4280 
Q 1456 4416 1019 4416 
L 800 4416 
L 800 4863 
L 997 4863 
Q 1775 4863 2036 4633 
Q 2297 4403 2297 3713 
L 2297 2963 
Q 2297 2497 2465 2317 
Q 2634 2138 3078 2138 
L 3272 2138 
L 3272 1691 
L 3078 1691 
Q 2634 1691 2465 1509 
Q 2297 1328 2297 856 
L 2297 109 
Q 2297 -581 2036 -812 
Q 1775 -1044 997 -1044 
L 800 -1044 
L 800 -594 
z
" transform="scale(0.015625)"/>
      <path id="ArialMT-29" d="M 791 -1347 
L 388 -1347 
Q 1322 153 1322 1656 
Q 1322 2244 1188 2822 
Q 1081 3291 891 3722 
Q 769 4003 388 4659 
L 791 4659 
Q 1378 3875 1659 3084 
Q 1900 2403 1900 1659 
Q 1900 816 1576 28 
Q 1253 -759 791 -1347 
z
" transform="scale(0.015625)"/>
     </defs>
     <use xlink:href="#ArialMT-47" transform="translate(0 0.015625)"/>
     <use xlink:href="#ArialMT-65" transform="translate(77.783203 0.015625)"/>
     <use xlink:href="#ArialMT-6e" transform="translate(133.398438 0.015625)"/>
     <use xlink:href="#ArialMT-65" transform="translate(189.013672 0.015625)"/>
     <use xlink:href="#ArialMT-74" transform="translate(244.628906 0.015625)"/>
     <use xlink:href="#ArialMT-69" transform="translate(272.412109 0.015625)"/>
     <use xlink:href="#ArialMT-63" transform="translate(294.628906 0.015625)"/>
     <use xlink:href="#ArialMT-20" transform="translate(344.628906 0.015625)"/>
     <use xlink:href="#ArialMT-41" transform="translate(372.412109 0.015625)"/>
     <use xlink:href="#ArialMT-6c" transform="translate(439.111328 0.015625)"/>
     <use xlink:href="#ArialMT-67" transform="translate(461.328125 0.015625)"/>
     <use xlink:href="#ArialMT-6f" transform="translate(516.943359 0.015625)"/>
     <use xlink:href="#ArialMT-72" transform="translate(572.558594 0.015625)"/>
     <use xlink:href="#ArialMT-69" transform="translate(605.859375 0.015625)"/>
     <use xlink:href="#ArialMT-74" transform="translate(628.076172 0.015625)"/>
     <use xlink:href="#ArialMT-68" transform="translate(655.859375 0.015625)"/>
     <use xlink:href="#ArialMT-6d" transform="translate(711.474609 0.015625)"/>
     <use xlink:href="#ArialMT-3a" transform="translate(794.775391 0.015625)"/>
     <use xlink:href="#ArialMT-20" transform="translate(822.558594 0.015625)"/>
     <use xlink:href="#ArialMT-41" transform="translate(850.341797 0.015625)"/>
     <use xlink:href="#ArialMT-63" transform="translate(917.041016 0.015625)"/>
     <use xlink:href="#ArialMT-68" transform="translate(967.041016 0.015625)"/>
     <use xlink:href="#ArialMT-69" transform="translate(1022.65625 0.015625)"/>
     <use xlink:href="#ArialMT-65" transform="translate(1044.873047 0.015625)"/>
     <use xlink:href="#ArialMT-76" transform="translate(1100.488281 0.015625)"/>
     <use xlink:href="#ArialMT-65" transform="translate(1150.488281 0.015625)"/>
     <use xlink:href="#ArialMT-64" transform="translate(1206.103516 0.015625)"/>
     <use xlink:href="#ArialMT-20" transform="translate(1261.71875 0.015625)"/>
     <use xlink:href="#ArialMT-4d" transform="translate(1289.501953 0.015625)"/>
     <use xlink:href="#ArialMT-56" transform="translate(1372.802734 0.015625)"/>
     <use xlink:href="#ArialMT-20" transform="translate(1439.501953 0.015625)"/>
     <use xlink:href="#ArialMT-53" transform="translate(1467.285156 0.015625)"/>
     <use xlink:href="#ArialMT-69" transform="translate(1533.984375 0.015625)"/>
     <use xlink:href="#ArialMT-7a" transform="translate(1556.201172 0.015625)"/>
     <use xlink:href="#ArialMT-65" transform="translate(1606.201172 0.015625)"/>
     <use xlink:href="#ArialMT-20" transform="translate(1661.816406 0.015625)"/>
     <use xlink:href="#ArialMT-76" transform="translate(1689.599609 0.015625)"/>
     <use xlink:href="#ArialMT-73" transform="translate(1739.599609 0.015625)"/>
     <use xlink:href="#ArialMT-2e" transform="translate(1789.599609 0.015625)"/>
     <use xlink:href="#ArialMT-20" transform="translate(1817.382812 0.015625)"/>
     <use xlink:href="#ArialMT-47" transform="translate(1845.166016 0.015625)"/>
     <use xlink:href="#ArialMT-65" transform="translate(1922.949219 0.015625)"/>
     <use xlink:href="#ArialMT-6e" transform="translate(1978.564453 0.015625)"/>
     <use xlink:href="#ArialMT-65" transform="translate(2034.179688 0.015625)"/>
     <use xlink:href="#ArialMT-72" transform="translate(2089.794922 0.015625)"/>
     <use xlink:href="#ArialMT-61" transform="translate(2123.095703 0.015625)"/>
     <use xlink:href="#ArialMT-6c" transform="translate(2178.710938 0.015625)"/>
     <use xlink:href="#ArialMT-20" transform="translate(2200.927734 0.015625)"/>
     <use xlink:href="#ArialMT-55" transform="translate(2228.710938 0.015625)"/>
     <use xlink:href="#ArialMT-70" transform="translate(2300.927734 0.015625)"/>
     <use xlink:href="#ArialMT-70" transform="translate(2356.542969 0.015625)"/>
     <use xlink:href="#ArialMT-65" transform="translate(2412.158203 0.015625)"/>
     <use xlink:href="#ArialMT-72" transform="translate(2467.773438 0.015625)"/>
     <use xlink:href="#ArialMT-20" transform="translate(2501.074219 0.015625)"/>
     <use xlink:href="#ArialMT-42" transform="translate(2528.857422 0.015625)"/>
     <use xlink:href="#ArialMT-6f" transform="translate(2595.556641 0.015625)"/>
     <use xlink:href="#ArialMT-75" transform="translate(2651.171875 0.015625)"/>
     <use xlink:href="#ArialMT-6e" transform="translate(2706.787109 0.015625)"/>
     <use xlink:href="#ArialMT-64" transform="translate(2762.402344 0.015625)"/>
     <use xlink:href="#ArialMT-20" transform="translate(2818.017578 0.015625)"/>
     <use xlink:href="#ArialMT-28" transform="translate(2845.800781 0.015625)"/>
     <use xlink:href="#DejaVuSans-6d" transform="translate(2879.101562 0.015625)"/>
     <use xlink:href="#DejaVuSans-69" transform="translate(2976.513672 0.015625)"/>
     <use xlink:href="#DejaVuSans-6e" transform="translate(3004.296875 0.015625)"/>
     <use xlink:href="#DejaVuSans-7b" transform="translate(3067.675781 0.015625)"/>
     <use xlink:href="#DejaVuSans-Oblique-6e" transform="translate(3131.298828 0.015625)"/>
     <use xlink:href="#DejaVuSans-2212" transform="translate(3214.160156 0.015625)"/>
     <use xlink:href="#DejaVuSans-Oblique-64" transform="translate(3317.431641 0.015625)"/>
     <use xlink:href="#DejaVuSans-2b" transform="translate(3400.390625 0.015625)"/>
     <use xlink:href="#DejaVuSans-31" transform="translate(3503.662109 0.015625)"/>
     <use xlink:href="#DejaVuSans-2c" transform="translate(3567.285156 0.015625)"/>
     <use xlink:href="#DejaVuSans-Oblique-6e" transform="translate(3618.554688 0.015625)"/>
     <use xlink:href="#DejaVuSans-2212" transform="translate(3701.416016 0.015625)"/>
     <use xlink:href="#DejaVuSans-Oblique-63" transform="translate(3804.6875 0.015625)"/>
     <use xlink:href="#DejaVuSans-2b" transform="translate(3879.150391 0.015625)"/>
     <use xlink:href="#DejaVuSans-33" transform="translate(3982.421875 0.015625)"/>
     <use xlink:href="#DejaVuSans-7d" transform="translate(4046.044922 0.015625)"/>
     <use xlink:href="#ArialMT-29" transform="translate(4109.667969 0.015625)"/>
    </g>
   </g>
   <g id="legend_1">
    <g id="patch_7">
     <path d="M 49.98 85.314219 
L 154.564219 85.314219 
Q 156.364219 85.314219 156.364219 83.514219 
L 156.364219 30.14 
Q 156.364219 28.34 154.564219 28.34 
L 49.98 28.34 
Q 48.18 28.34 48.18 30.14 
L 48.18 83.514219 
Q 48.18 85.314219 49.98 85.314219 
z
" style="fill: #ffffff; opacity: 0.8; stroke: #cccccc; stroke-linejoin: miter"/>
    </g>
    <g id="text_16">
     <!-- Graph Type -->
     <g style="fill: #262626" transform="translate(71.028047 40.675625) scale(0.12 -0.12)">
      <defs>
       <path id="ArialMT-54" d="M 1659 0 
L 1659 4041 
L 150 4041 
L 150 4581 
L 3781 4581 
L 3781 4041 
L 2266 4041 
L 2266 0 
L 1659 0 
z
" transform="scale(0.015625)"/>
       <path id="ArialMT-79" d="M 397 -1278 
L 334 -750 
Q 519 -800 656 -800 
Q 844 -800 956 -737 
Q 1069 -675 1141 -563 
Q 1194 -478 1313 -144 
Q 1328 -97 1363 -6 
L 103 3319 
L 709 3319 
L 1400 1397 
Q 1534 1031 1641 628 
Q 1738 1016 1872 1384 
L 2581 3319 
L 3144 3319 
L 1881 -56 
Q 1678 -603 1566 -809 
Q 1416 -1088 1222 -1217 
Q 1028 -1347 759 -1347 
Q 597 -1347 397 -1278 
z
" transform="scale(0.015625)"/>
      </defs>
      <use xlink:href="#ArialMT-47"/>
      <use xlink:href="#ArialMT-72" transform="translate(77.783203 0)"/>
      <use xlink:href="#ArialMT-61" transform="translate(111.083984 0)"/>
      <use xlink:href="#ArialMT-70" transform="translate(166.699219 0)"/>
      <use xlink:href="#ArialMT-68" transform="translate(222.314453 0)"/>
      <use xlink:href="#ArialMT-20" transform="translate(277.929688 0)"/>
      <use xlink:href="#ArialMT-54" transform="translate(303.962891 0)"/>
      <use xlink:href="#ArialMT-79" transform="translate(359.546875 0)"/>
      <use xlink:href="#ArialMT-70" transform="translate(409.546875 0)"/>
      <use xlink:href="#ArialMT-65" transform="translate(465.162109 0)"/>
     </g>
    </g>
    <g id="line2d_16">
     <path d="M 51.78 51.102969 
L 60.78 51.102969 
L 69.78 51.102969 
" style="fill: none; stroke-dasharray: 5.55,2.4; stroke-dashoffset: 0; stroke: #c44e52; stroke-width: 1.5"/>
    </g>
    <g id="text_17">
     <!-- Upper Bound (y=x) -->
     <g style="fill: #262626" transform="translate(76.98 54.252969) scale(0.09 -0.09)">
      <defs>
       <path id="ArialMT-3d" d="M 3381 2694 
L 356 2694 
L 356 3219 
L 3381 3219 
L 3381 2694 
z
M 3381 1303 
L 356 1303 
L 356 1828 
L 3381 1828 
L 3381 1303 
z
" transform="scale(0.015625)"/>
       <path id="ArialMT-78" d="M 47 0 
L 1259 1725 
L 138 3319 
L 841 3319 
L 1350 2541 
Q 1494 2319 1581 2169 
Q 1719 2375 1834 2534 
L 2394 3319 
L 3066 3319 
L 1919 1756 
L 3153 0 
L 2463 0 
L 1781 1031 
L 1600 1309 
L 728 0 
L 47 0 
z
" transform="scale(0.015625)"/>
      </defs>
      <use xlink:href="#ArialMT-55"/>
      <use xlink:href="#ArialMT-70" transform="translate(72.216797 0)"/>
      <use xlink:href="#ArialMT-70" transform="translate(127.832031 0)"/>
      <use xlink:href="#ArialMT-65" transform="translate(183.447266 0)"/>
      <use xlink:href="#ArialMT-72" transform="translate(239.0625 0)"/>
      <use xlink:href="#ArialMT-20" transform="translate(272.363281 0)"/>
      <use xlink:href="#ArialMT-42" transform="translate(300.146484 0)"/>
      <use xlink:href="#ArialMT-6f" transform="translate(366.845703 0)"/>
      <use xlink:href="#ArialMT-75" transform="translate(422.460938 0)"/>
      <use xlink:href="#ArialMT-6e" transform="translate(478.076172 0)"/>
      <use xlink:href="#ArialMT-64" transform="translate(533.691406 0)"/>
      <use xlink:href="#ArialMT-20" transform="translate(589.306641 0)"/>
      <use xlink:href="#ArialMT-28" transform="translate(617.089844 0)"/>
      <use xlink:href="#ArialMT-79" transform="translate(650.390625 0)"/>
      <use xlink:href="#ArialMT-3d" transform="translate(700.390625 0)"/>
      <use xlink:href="#ArialMT-78" transform="translate(758.789062 0)"/>
      <use xlink:href="#ArialMT-29" transform="translate(808.789062 0)"/>
     </g>
    </g>
    <g id="line2d_17">
     <defs>
      <path id="mc0298c1757" d="M 0 4.472136 
C 1.186024 4.472136 2.323632 4.000923 3.162278 3.162278 
C 4.000923 2.323632 4.472136 1.186024 4.472136 0 
C 4.472136 -1.186024 4.000923 -2.323632 3.162278 -3.162278 
C 2.323632 -4.000923 1.186024 -4.472136 0 -4.472136 
C -1.186024 -4.472136 -2.323632 -4.000923 -3.162278 -3.162278 
C -4.000923 -2.323632 -4.472136 -1.186024 -4.472136 0 
C -4.472136 1.186024 -4.000923 2.323632 -3.162278 3.162278 
C -2.323632 4.000923 -1.186024 4.472136 0 4.472136 
z
" style="stroke: #ffffff; stroke-opacity: 0.7; stroke-width: 0.715542"/>
     </defs>
     <g>
      <use xlink:href="#mc0298c1757" x="60.78" y="63.939219" style="fill: #1f77b4; fill-opacity: 0.7; stroke: #ffffff; stroke-opacity: 0.7; stroke-width: 0.715542"/>
     </g>
    </g>
    <g id="text_18">
     <!-- petersen -->
     <g style="fill: #262626" transform="translate(76.98 67.089219) scale(0.09 -0.09)">
      <use xlink:href="#ArialMT-70"/>
      <use xlink:href="#ArialMT-65" transform="translate(55.615234 0)"/>
      <use xlink:href="#ArialMT-74" transform="translate(111.230469 0)"/>
      <use xlink:href="#ArialMT-65" transform="translate(139.013672 0)"/>
      <use xlink:href="#ArialMT-72" transform="translate(194.628906 0)"/>
      <use xlink:href="#ArialMT-73" transform="translate(227.929688 0)"/>
      <use xlink:href="#ArialMT-65" transform="translate(277.929688 0)"/>
      <use xlink:href="#ArialMT-6e" transform="translate(333.544922 0)"/>
     </g>
    </g>
    <g id="line2d_18">
     <defs>
      <path id="m5cb43edf67" d="M 0 4.472136 
C 1.186024 4.472136 2.323632 4.000923 3.162278 3.162278 
C 4.000923 2.323632 4.472136 1.186024 4.472136 0 
C 4.472136 -1.186024 4.000923 -2.323632 3.162278 -3.162278 
C 2.323632 -4.000923 1.186024 -4.472136 0 -4.472136 
C -1.186024 -4.472136 -2.323632 -4.000923 -3.162278 -3.162278 
C -4.000923 -2.323632 -4.472136 -1.186024 -4.472136 0 
C -4.472136 1.186024 -4.000923 2.323632 -3.162278 3.162278 
C -2.323632 4.000923 -1.186024 4.472136 0 4.472136 
z
" style="stroke: #ffffff; stroke-opacity: 0.7; stroke-width: 0.715542"/>
     </defs>
     <g>
      <use xlink:href="#m5cb43edf67" x="60.78" y="76.67" style="fill: #ff7f0e; fill-opacity: 0.7; stroke: #ffffff; stroke-opacity: 0.7; stroke-width: 0.715542"/>
     </g>
    </g>
    <g id="text_19">
     <!-- erdos_renyi -->
     <g style="fill: #262626" transform="translate(76.98 79.82) scale(0.09 -0.09)">
      <defs>
       <path id="ArialMT-5f" d="M -97 -1272 
L -97 -866 
L 3631 -866 
L 3631 -1272 
L -97 -1272 
z
" transform="scale(0.015625)"/>
      </defs>
      <use xlink:href="#ArialMT-65"/>
      <use xlink:href="#ArialMT-72" transform="translate(55.615234 0)"/>
      <use xlink:href="#ArialMT-64" transform="translate(88.916016 0)"/>
      <use xlink:href="#ArialMT-6f" transform="translate(144.53125 0)"/>
      <use xlink:href="#ArialMT-73" transform="translate(200.146484 0)"/>
      <use xlink:href="#ArialMT-5f" transform="translate(250.146484 0)"/>
      <use xlink:href="#ArialMT-72" transform="translate(305.761719 0)"/>
      <use xlink:href="#ArialMT-65" transform="translate(339.0625 0)"/>
      <use xlink:href="#ArialMT-6e" transform="translate(394.677734 0)"/>
      <use xlink:href="#ArialMT-79" transform="translate(450.292969 0)"/>
      <use xlink:href="#ArialMT-69" transform="translate(500.292969 0)"/>
     </g>
    </g>
   </g>
  </g>
 </g>
 <defs>
  <clipPath id="p08179aca20">
   <rect x="43.68" y="23.84" width="507.06" height="507.06"/>
  </clipPath>
 </defs>
</svg>
